<svg width="800" height="800" viewBox="0 0 48 48" xmlns="http://www.w3.org/2000/svg"><rect y="6" width="48" height="36" rx="2" ry="2" fill="#38b1e7"/><path d="M47.84 40.56A2.11 2.11 0 0 1 46 41.9L2 42a2 2 0 0 1-1.85-1.22 2 2 0 0 1 .44-2.16l17.29-16.89a9.23 9.23 0 0 1 12.56.07L47.4 38.41a2 2 0 0 1 .44 2.15z" fill="#299acc"/><path d="M47.84 7.44A2.11 2.11 0 0 0 46 6.1L2 6A2 2 0 0 0 .15 7.22a2 2 0 0 0 .44 2.16l17.29 16.89a9.23 9.23 0 0 0 12.56-.07L47.4 9.59a2 2 0 0 0 .44-2.15z" fill="#6ac1e7"/></svg>