<svg width="612" height="588" fill="none" xmlns="http://www.w3.org/2000/svg"><path d="M602.248 98.556a5.334 5.334 0 1 0 7.213-7.859 5.334 5.334 0 0 0-7.213 7.86zM300.693 586.067a1426.072 1426.072 0 0 1-4.044-3.162l-1.234 1.574c1.344 1.055 2.694 2.11 4.049 3.166l1.229-1.578zm-12.042-9.474c-2.646-2.101-5.272-4.2-7.878-6.296l-1.254 1.559c2.61 2.098 5.239 4.199 7.888 6.303l1.244-1.566zm-15.638-12.575a1570.57 1570.57 0 0 1-7.641-6.262l-1.273 1.542c2.531 2.088 5.081 4.178 7.651 6.271l1.263-1.551zm-15.164-12.508c-2.509-2.096-4.999-4.19-7.468-6.281l-1.293 1.526c2.473 2.094 4.966 4.191 7.479 6.29l1.282-1.535zm-15.255-12.92a1413.134 1413.134 0 0 1-7.652-6.617l-1.314 1.508c2.532 2.205 5.087 4.414 7.663 6.627l1.303-1.518zm-15.172-13.214a1356.519 1356.519 0 0 1-7.386-6.574l-1.335 1.489c2.444 2.191 4.909 4.386 7.397 6.584l1.324-1.499zm-14.639-13.127a1299.242 1299.242 0 0 1-7.205-6.606l-1.357 1.469c2.383 2.201 4.788 4.407 7.215 6.616l1.347-1.479zm-14.691-13.58c-2.47-2.32-4.915-4.636-7.336-6.947l-1.381 1.446c2.424 2.315 4.874 4.635 7.348 6.959l1.369-1.458zm-14.521-13.867c-2.37-2.302-4.716-4.599-7.036-6.891l-1.406 1.422c2.325 2.297 4.674 4.598 7.048 6.904l1.394-1.435zm-13.924-13.755a1090.178 1090.178 0 0 1-7.037-7.14l-1.431 1.397c2.323 2.379 4.673 4.764 7.051 7.154l1.417-1.411zm-14.108-14.451a1012.759 1012.759 0 0 1-6.901-7.276l-1.458 1.369c2.276 2.424 4.581 4.854 6.914 7.29l1.445-1.383zm-13.633-14.517a992.337 992.337 0 0 1-6.563-7.205l-1.485 1.339a933.588 933.588 0 0 0 6.577 7.22l1.471-1.354zm-13.166-14.61a887.16 887.16 0 0 1-6.699-7.682l-1.515 1.306a891.127 891.127 0 0 0 6.714 7.699l1.5-1.323zm-13.204-15.319a833.75 833.75 0 0 1-6.313-7.593l-1.546 1.269a811.297 811.297 0 0 0 6.329 7.611l1.53-1.287zm-12.435-15.141a761.96 761.96 0 0 1-6.223-7.875l-1.577 1.229a767.422 767.422 0 0 0 6.239 7.897l1.561-1.251zm-12.407-15.924a692.06 692.06 0 0 1-5.965-7.992l-1.611 1.185a704.84 704.84 0 0 0 5.981 8.015l1.595-1.208zm-11.71-15.927a648.358 648.358 0 0 1-5.607-7.993l-1.646 1.136a644.845 644.845 0 0 0 5.624 8.018l1.629-1.161zm-11.345-16.456a585.911 585.911 0 0 1-5.485-8.392l-1.684 1.079a578.043 578.043 0 0 0 5.504 8.421l1.665-1.108zM56.92 331.989a525.213 525.213 0 0 1-5.014-8.298l-1.721 1.018a529.226 529.226 0 0 0 5.033 8.33l1.702-1.05zm-10.138-17.162c-1.66-2.94-3.271-5.865-4.834-8.774l-1.762.946a477.07 477.07 0 0 0 4.854 8.811l1.742-.983zm-9.378-17.458a427.659 427.659 0 0 1-4.36-8.804l-1.803.866c1.41 2.933 2.87 5.882 4.38 8.846l1.783-.908zm-8.654-18.026a381.22 381.22 0 0 1-3.959-9.109l-1.845.773a380.521 380.521 0 0 0 3.98 9.157l1.824-.821zm-7.586-18.102a335.238 335.238 0 0 1-3.514-9.487l-1.886.666a338.332 338.332 0 0 0 3.535 9.544l1.865-.723zm-6.7-18.98a294.387 294.387 0 0 1-2.803-9.349l-1.925.542a296.501 296.501 0 0 0 2.822 9.413l1.906-.606zm-5.337-19.008a257.6 257.6 0 0 1-2.18-9.791l-1.96.396a259.7 259.7 0 0 0 2.196 9.867l1.944-.472zm-3.923-19.404a224.863 224.863 0 0 1-1.362-9.893l-1.987.229c.378 3.294.836 6.621 1.374 9.981l1.975-.317zm-2.269-19.834c-.22-3.277-.357-6.518-.413-9.722l-2 .035c.057 3.237.196 6.511.418 9.821l1.995-.134zm-.318-19.781c.124-3.333.339-6.623.644-9.869l-1.99-.187a175.77 175.77 0 0 0-.652 9.982l1.998.074zm1.856-19.63a156.369 156.369 0 0 1 1.84-9.807l-1.953-.432a158.423 158.423 0 0 0-1.863 9.933l1.976.306zm4.268-19.312a144.824 144.824 0 0 1 3.101-9.451l-1.877-.689a147.05 147.05 0 0 0-3.145 9.581l1.92.559zm6.827-18.607a139.589 139.589 0 0 1 4.354-8.86l-1.762-.946a141.898 141.898 0 0 0-4.417 8.987l1.825.819zm9.339-17.413a140.807 140.807 0 0 1 5.577-8.181l-1.612-1.184a142.868 142.868 0 0 0-5.656 8.297l1.69 1.068zm11.681-15.92a148.132 148.132 0 0 1 6.68-7.376l-1.437-1.391a150.098 150.098 0 0 0-6.77 7.476l1.527 1.292zm13.744-14.219a161.5 161.5 0 0 1 7.542-6.44l-1.252-1.56a163.378 163.378 0 0 0-7.635 6.52l1.345 1.48zm15.481-12.436c2.641-1.877 5.36-3.7 8.157-5.467l-1.068-1.69a182.415 182.415 0 0 0-8.248 5.527l1.159 1.63zM82.59 36.098a204.23 204.23 0 0 1 8.684-4.597l-.894-1.789a206.291 206.291 0 0 0-8.768 4.642l.978 1.744zm17.637-8.813a232.604 232.604 0 0 1 9.346-3.904l-.731-1.862a235.06 235.06 0 0 0-9.426 3.938l.811 1.828zm18.457-7.276a264.863 264.863 0 0 1 9.452-3.091l-.587-1.912c-3.23.99-6.404 2.029-9.523 3.115l.658 1.888zm19.18-5.883c3.096-.83 6.241-1.618 9.433-2.363l-.455-1.948a302.6 302.6 0 0 0-9.495 2.379l.517 1.932zm19.151-4.473c3.287-.66 6.622-1.279 10.002-1.854l-.335-1.971c-3.4.578-6.754 1.2-10.061 1.864l.394 1.961zm19.606-3.352c3.233-.46 6.505-.883 9.818-1.267l-.23-1.987c-3.33.386-6.62.81-9.87 1.274l.282 1.98zm19.875-2.304c3.253-.295 6.542-.553 9.867-.776l-.134-1.996c-3.34.224-6.645.484-9.914.78l.181 1.992zm19.668-1.325a468.99 468.99 0 0 1 10.003-.342l-.048-2c-3.381.08-6.73.195-10.045.344l.09 1.998zm20.196-.476c3.207-.01 6.443.011 9.707.063l.032-2a517.655 517.655 0 0 0-9.745-.063l.006 2zm19.584.312c3.32.113 6.669.258 10.045.434l.104-1.997a565.044 565.044 0 0 0-10.081-.436l-.068 1.999zm20.15 1.049c3.211.223 6.447.473 9.707.752l.17-1.993c-3.27-.28-6.516-.53-9.739-.754l-.138 1.995zm19.556 1.671c3.307.334 6.638.697 9.992 1.087l.231-1.986a663.69 663.69 0 0 0-10.021-1.09l-.202 1.989zm20.091 2.34c3.191.42 6.402.865 9.633 1.335l.288-1.98a713.29 713.29 0 0 0-9.66-1.338l-.261 1.983zm19.386 2.82a759.91 759.91 0 0 1 9.872 1.639l.341-1.971c-3.32-.573-6.619-1.12-9.899-1.643l-.314 1.976zm19.863 3.43c3.218.6 6.453 1.221 9.706 1.867l.39-1.962a815.216 815.216 0 0 0-9.73-1.87l-.366 1.966zm19.316 3.834c3.22.679 6.458 1.38 9.712 2.106l.435-1.952a866.964 866.964 0 0 0-9.734-2.11l-.413 1.956zm19.525 4.35c3.286.772 6.588 1.567 9.908 2.385l.478-1.942a920.158 920.158 0 0 0-9.929-2.39l-.457 1.948zm19.344 4.763a959.45 959.45 0 0 1 9.524 2.504l.519-1.931a970.785 970.785 0 0 0-9.544-2.51l-.499 1.937zM432.31 31.9c3.218.899 6.45 1.818 9.696 2.76l.557-1.922c-3.253-.942-6.491-1.864-9.715-2.764l-.538 1.926zm19.44 5.635c3.094.93 6.201 1.879 9.32 2.847l.593-1.91c-3.125-.97-6.237-1.92-9.337-2.852l-.576 1.915zm18.714 5.81c3.144 1.006 6.3 2.032 9.468 3.078l.627-1.9a1121.343 1121.343 0 0 0-9.485-3.084l-.61 1.905zm19.008 6.274c3.193 1.085 6.397 2.19 9.613 3.314l.66-1.888a1162.152 1162.152 0 0 0-9.629-3.32l-.644 1.894zm18.867 6.59c3.067 1.101 6.145 2.22 9.234 3.356l.69-1.877a1207.843 1207.843 0 0 0-9.249-3.36l-.675 1.882zm18.531 6.818c3.11 1.172 6.23 2.362 9.36 3.57l.72-1.866c-3.135-1.21-6.26-2.402-9.374-3.576l-.706 1.872zm18.781 7.248c3.1 1.223 6.21 2.465 9.329 3.724l.749-1.855a1334.729 1334.729 0 0 0-9.343-3.73l-.735 1.86zm18.384 7.417c3.027 1.247 6.064 2.511 9.109 3.792l.775-1.844c-3.05-1.282-6.09-2.548-9.122-3.797l-.762 1.849zm18.271 7.683a1442.04 1442.04 0 0 1 9.216 3.99l.801-1.832c-3.085-1.35-6.161-2.681-9.229-3.997l-.788 1.838zm18.484 8.08c1.549.691 3.101 1.386 4.654 2.084l.821-1.824c-1.556-.7-3.11-1.395-4.661-2.086l-.814 1.827zm1.458 5.101a5.334 5.334 0 1 0 7.213-7.859 5.334 5.334 0 0 0-7.213 7.86zM300.693 586.067a1426.072 1426.072 0 0 1-4.044-3.162l-1.234 1.574c1.344 1.055 2.694 2.11 4.049 3.166l1.229-1.578zm-12.042-9.474c-2.646-2.101-5.272-4.2-7.878-6.296l-1.254 1.559c2.61 2.098 5.239 4.199 7.888 6.303l1.244-1.566zm-15.638-12.575a1570.57 1570.57 0 0 1-7.641-6.262l-1.273 1.542c2.531 2.088 5.081 4.178 7.651 6.271l1.263-1.551zm-15.164-12.508c-2.509-2.096-4.999-4.19-7.468-6.281l-1.293 1.526c2.473 2.094 4.966 4.191 7.479 6.29l1.282-1.535zm-15.255-12.92a1413.134 1413.134 0 0 1-7.652-6.617l-1.314 1.508c2.532 2.205 5.087 4.414 7.663 6.627l1.303-1.518zm-15.172-13.214a1356.519 1356.519 0 0 1-7.386-6.574l-1.335 1.489c2.444 2.191 4.909 4.386 7.397 6.584l1.324-1.499zm-14.639-13.127a1299.242 1299.242 0 0 1-7.205-6.606l-1.357 1.469c2.383 2.201 4.788 4.407 7.215 6.616l1.347-1.479zm-14.691-13.58c-2.47-2.32-4.915-4.636-7.336-6.947l-1.381 1.446c2.424 2.315 4.874 4.635 7.348 6.959l1.369-1.458zm-14.521-13.867c-2.37-2.302-4.716-4.599-7.036-6.891l-1.406 1.422c2.325 2.297 4.674 4.598 7.048 6.904l1.394-1.435zm-13.924-13.755a1090.178 1090.178 0 0 1-7.037-7.14l-1.431 1.397c2.323 2.379 4.673 4.764 7.051 7.154l1.417-1.411zm-14.108-14.451a1012.759 1012.759 0 0 1-6.901-7.276l-1.458 1.369c2.276 2.424 4.581 4.854 6.914 7.29l1.445-1.383zm-13.633-14.517a992.337 992.337 0 0 1-6.563-7.205l-1.485 1.339a933.588 933.588 0 0 0 6.577 7.22l1.471-1.354zm-13.166-14.61a887.16 887.16 0 0 1-6.699-7.682l-1.515 1.306a891.127 891.127 0 0 0 6.714 7.699l1.5-1.323zm-13.204-15.319a833.75 833.75 0 0 1-6.313-7.593l-1.546 1.269a811.297 811.297 0 0 0 6.329 7.611l1.53-1.287zm-12.435-15.141a761.96 761.96 0 0 1-6.223-7.875l-1.577 1.229a767.422 767.422 0 0 0 6.239 7.897l1.561-1.251zm-12.407-15.924a692.06 692.06 0 0 1-5.965-7.992l-1.611 1.185a704.84 704.84 0 0 0 5.981 8.015l1.595-1.208zm-11.71-15.927a648.358 648.358 0 0 1-5.607-7.993l-1.646 1.136a644.845 644.845 0 0 0 5.624 8.018l1.629-1.161zm-11.345-16.456a585.911 585.911 0 0 1-5.485-8.392l-1.684 1.079a578.043 578.043 0 0 0 5.504 8.421l1.665-1.108zM56.92 331.989a525.213 525.213 0 0 1-5.014-8.298l-1.721 1.018a529.226 529.226 0 0 0 5.033 8.33l1.702-1.05zm-10.138-17.162c-1.66-2.94-3.271-5.865-4.834-8.774l-1.762.946a477.07 477.07 0 0 0 4.854 8.811l1.742-.983zm-9.378-17.458a427.659 427.659 0 0 1-4.36-8.804l-1.803.866c1.41 2.933 2.87 5.882 4.38 8.846l1.783-.908zm-8.654-18.026a381.22 381.22 0 0 1-3.959-9.109l-1.845.773a380.521 380.521 0 0 0 3.98 9.157l1.824-.821zm-7.586-18.102a335.238 335.238 0 0 1-3.514-9.487l-1.886.666a338.332 338.332 0 0 0 3.535 9.544l1.865-.723zm-6.7-18.98a294.387 294.387 0 0 1-2.803-9.349l-1.925.542a296.501 296.501 0 0 0 2.822 9.413l1.906-.606zm-5.337-19.008a257.6 257.6 0 0 1-2.18-9.791l-1.96.396a259.7 259.7 0 0 0 2.196 9.867l1.944-.472zm-3.923-19.404a224.863 224.863 0 0 1-1.362-9.893l-1.987.229c.378 3.294.836 6.621 1.374 9.981l1.975-.317zm-2.269-19.834c-.22-3.277-.357-6.518-.413-9.722l-2 .035c.057 3.237.196 6.511.418 9.821l1.995-.134zm-.318-19.781c.124-3.333.339-6.623.644-9.869l-1.99-.187a175.77 175.77 0 0 0-.652 9.982l1.998.074zm1.856-19.63a156.369 156.369 0 0 1 1.84-9.807l-1.953-.432a158.423 158.423 0 0 0-1.863 9.933l1.976.306zm4.268-19.312a144.824 144.824 0 0 1 3.101-9.451l-1.877-.689a147.05 147.05 0 0 0-3.145 9.581l1.92.559zm6.827-18.607a139.589 139.589 0 0 1 4.354-8.86l-1.762-.946a141.898 141.898 0 0 0-4.417 8.987l1.825.819zm9.339-17.413a140.807 140.807 0 0 1 5.577-8.181l-1.612-1.184a142.868 142.868 0 0 0-5.656 8.297l1.69 1.068zm11.681-15.92a148.132 148.132 0 0 1 6.68-7.376l-1.437-1.391a150.098 150.098 0 0 0-6.77 7.476l1.527 1.292zm13.744-14.219a161.5 161.5 0 0 1 7.542-6.44l-1.252-1.56a163.378 163.378 0 0 0-7.635 6.52l1.345 1.48zm15.481-12.436c2.641-1.877 5.36-3.7 8.157-5.467l-1.068-1.69a182.415 182.415 0 0 0-8.248 5.527l1.159 1.63zM82.59 36.098a204.23 204.23 0 0 1 8.684-4.597l-.894-1.789a206.291 206.291 0 0 0-8.768 4.642l.978 1.744zm17.637-8.813a232.604 232.604 0 0 1 9.346-3.904l-.731-1.862a235.06 235.06 0 0 0-9.426 3.938l.811 1.828zm18.457-7.276a264.863 264.863 0 0 1 9.452-3.091l-.587-1.912c-3.23.99-6.404 2.029-9.523 3.115l.658 1.888zm19.18-5.883c3.096-.83 6.241-1.618 9.433-2.363l-.455-1.948a302.6 302.6 0 0 0-9.495 2.379l.517 1.932zm19.151-4.473c3.287-.66 6.622-1.279 10.002-1.854l-.335-1.971c-3.4.578-6.754 1.2-10.061 1.864l.394 1.961zm19.606-3.352c3.233-.46 6.505-.883 9.818-1.267l-.23-1.987c-3.33.386-6.62.81-9.87 1.274l.282 1.98zm19.875-2.304c3.253-.295 6.542-.553 9.867-.776l-.134-1.996c-3.34.224-6.645.484-9.914.78l.181 1.992zm19.668-1.325a468.99 468.99 0 0 1 10.003-.342l-.048-2c-3.381.08-6.73.195-10.045.344l.09 1.998zm20.196-.476c3.207-.01 6.443.011 9.707.063l.032-2a517.655 517.655 0 0 0-9.745-.063l.006 2zm19.584.312c3.32.113 6.669.258 10.045.434l.104-1.997a565.044 565.044 0 0 0-10.081-.436l-.068 1.999zm20.15 1.049c3.211.223 6.447.473 9.707.752l.17-1.993c-3.27-.28-6.516-.53-9.739-.754l-.138 1.995zm19.556 1.671c3.307.334 6.638.697 9.992 1.087l.231-1.986a663.69 663.69 0 0 0-10.021-1.09l-.202 1.989zm20.091 2.34c3.191.42 6.402.865 9.633 1.335l.288-1.98a713.29 713.29 0 0 0-9.66-1.338l-.261 1.983zm19.386 2.82a759.91 759.91 0 0 1 9.872 1.639l.341-1.971c-3.32-.573-6.619-1.12-9.899-1.643l-.314 1.976zm19.863 3.43c3.218.6 6.453 1.221 9.706 1.867l.39-1.962a815.216 815.216 0 0 0-9.73-1.87l-.366 1.966zm19.316 3.834c3.22.679 6.458 1.38 9.712 2.106l.435-1.952a866.964 866.964 0 0 0-9.734-2.11l-.413 1.956zm19.525 4.35c3.286.772 6.588 1.567 9.908 2.385l.478-1.942a920.158 920.158 0 0 0-9.929-2.39l-.457 1.948zm19.344 4.763a959.45 959.45 0 0 1 9.524 2.504l.519-1.931a970.785 970.785 0 0 0-9.544-2.51l-.499 1.937zM432.31 31.9c3.218.899 6.45 1.818 9.696 2.76l.557-1.922c-3.253-.942-6.491-1.864-9.715-2.764l-.538 1.926zm19.44 5.635c3.094.93 6.201 1.879 9.32 2.847l.593-1.91c-3.125-.97-6.237-1.92-9.337-2.852l-.576 1.915zm18.714 5.81c3.144 1.006 6.3 2.032 9.468 3.078l.627-1.9a1121.343 1121.343 0 0 0-9.485-3.084l-.61 1.905zm19.008 6.274c3.193 1.085 6.397 2.19 9.613 3.314l.66-1.888a1162.152 1162.152 0 0 0-9.629-3.32l-.644 1.894zm18.867 6.59c3.067 1.101 6.145 2.22 9.234 3.356l.69-1.877a1207.843 1207.843 0 0 0-9.249-3.36l-.675 1.882zm18.531 6.818c3.11 1.172 6.23 2.362 9.36 3.57l.72-1.866c-3.135-1.21-6.26-2.402-9.374-3.576l-.706 1.872zm18.781 7.248c3.1 1.223 6.21 2.465 9.329 3.724l.749-1.855a1334.729 1334.729 0 0 0-9.343-3.73l-.735 1.86zm18.384 7.417c3.027 1.247 6.064 2.511 9.109 3.792l.775-1.844c-3.05-1.282-6.09-2.548-9.122-3.797l-.762 1.849zm18.271 7.683a1442.04 1442.04 0 0 1 9.216 3.99l.801-1.832c-3.085-1.35-6.161-2.681-9.229-3.997l-.788 1.838zm18.484 8.08c1.549.691 3.101 1.386 4.654 2.084l.821-1.824c-1.556-.7-3.11-1.395-4.661-2.086l-.814 1.827z" fill="#000"/></svg>