<svg width="980" height="497" fill="none" xmlns="http://www.w3.org/2000/svg"><g filter="url(#a)"><path d="M61 316.197c.29-2.522 2.285 5.035 2.515 5.606 10.596 26.243 24.145 50.157 39.995 71.956 10.993 15.118 24.972 35.833 41.63 41.273 19.753 6.451 22.326-12.09 17.105-32.24-7.036-27.15-20.586-53.488-32.826-77.562-14.091-27.713-28.091-55.031-40.12-84.26-12.156-29.531-23.591-58.327-22.01-92.358.985-21.223 7.27-66.363 33.203-50.306 18.868 11.682 25.633 45.192 34.209 66.66 12.648 31.66 28.062 61.691 43.013 91.735 14.059 28.251 30.166 54.523 45.026 82.079 11.562 21.44 20.717 46.522 34.712 65.725 6.024 8.266 32.6 40.926 40.624 19.313 9.2-24.782-4.086-55.297-14.212-75.849-26.029-52.827-54.219-102.748-70.557-161.978-5.592-20.271-16.121-50.494-9.684-72.266 7.289-24.66 26.18-19.788 39.24-5.452 19.672 21.595 33.141 52.407 48.295 78.653 17.228 29.838 32.664 60.082 46.032 92.826 9.935 24.333 19.564 48.548 31.317 71.643 9.916 19.489 19.34 41.103 34.209 55.602 4.458 4.347 11.811 11.687 18.111 10.669 6.294-1.017 6.751-12.812 7.043-18.3 1.433-26.994-4.446-54.335-13.206-78.809-9.799-27.376-21.046-54.998-33.706-80.521-11.04-22.257-22.971-44.352-32.197-67.906-6.993-17.852-14.057-40.89-10.062-61.053 4.34-21.903 20.086-21.026 33.958-12.304 49.038 30.83 61.745 105.713 84.643 161.51 11.786 28.72 24.592 58.77 41.001 83.948 10.853 16.655 24.584 36.647 40.875 45.323 10.664 5.679 21.073 7.768 23.896-9.189 4.604-27.661-6.889-54.866-16.979-78.497-10.964-25.679-23.006-49.457-37.982-71.8-12.038-17.96-23.119-36.628-31.946-57.315-8.495-19.912-15.746-40.988-17.859-63.545-2.067-22.071 6.23-29.865 23.896-26.321 21.797 4.371 34.212 21.555 45.906 43.142 15.321 28.279 32.886 53.124 50.56 79.119 15.572 22.905 31.18 46.028 44.899 70.71 10.859 19.536 19.492 40.524 29.808 60.43 10.741 20.727 22.223 41.922 35.089 60.742 6.703 9.804 16.474 16.9 25.532 5.762 14.204-17.466 4.76-45.478-2.767-63.545-11.862-28.469-26.184-55.508-39.618-82.858-14.308-29.13-28.331-58.716-40.875-89.087-10.218-24.741-25.195-57.943-21.506-87.063 4.263-33.658 31.937-9.975 42.258 3.738 22.849 30.357 39.455 68.157 55.842 104.039 26.441 57.898 43.773 120.891 70.053 178.798 6.203 13.667 16.208 40.653 32.449 36.913 26.55-6.114 19.575-47.146 12.828-68.374-9.492-29.869-24.242-56.584-35.341-85.505-12.293-32.034-24.334-64.5-32.448-98.588-4.947-20.782-11.996-46.62-9.559-68.685 2.451-22.187 20.337-24.477 34.838-18.222 30.86 13.31 50.873 45.139 63.891 80.677 12.62 34.448 22.598 70.227 35.593 104.507 8.367 22.07 16.807 44.103 25.406 66.037 5.431 13.853 11.319 26.553 13.96 41.273" stroke="url(#b)" stroke-width="21" stroke-linecap="round"/></g><defs><radialGradient id="b" cx="0" cy="0" r="1" gradientUnits="userSpaceOnUse" gradientTransform="matrix(0 187.5 -429 0 490 248.836)"><stop offset=".293" stop-color="#933FFA"/><stop offset=".407" stop-color="#4C2180"/><stop offset=".702" stop-color="#FDE598"/></radialGradient><filter id="a" x=".499" y=".834" width="979.003" height="496.003" filterUnits="userSpaceOnUse" color-interpolation-filters="sRGB"><feFlood flood-opacity="0" result="BackgroundImageFix"/><feBlend in="SourceGraphic" in2="BackgroundImageFix" result="shape"/><feGaussianBlur stdDeviation="25" result="effect1_foregroundBlur_2_130"/></filter></defs></svg>