<svg width="611" height="367" fill="none" xmlns="http://www.w3.org/2000/svg"><path d="M194.061 117.013c47.123-24.708 94.476-38.077 132.928-39.736 38.495-1.66 67.876 8.412 79.372 30.337 11.495 21.924 3.071 51.819-20.188 82.538-23.234 30.685-61.161 62.031-108.284 86.738-47.122 24.708-94.475 38.077-132.927 39.737-38.496 1.66-67.877-8.412-79.372-30.337-11.496-21.924-3.072-51.819 20.188-82.539 23.233-30.684 61.16-62.03 108.283-86.738z" stroke="#000"/><path d="M171.061 90.013c47.123-24.708 94.476-38.077 132.928-39.736 38.495-1.66 67.876 8.412 79.372 30.337 11.495 21.924 3.071 51.819-20.188 82.538-23.234 30.685-61.161 62.031-108.284 86.738-47.122 24.708-94.475 38.077-132.927 39.737-38.496 1.66-67.877-8.412-79.373-30.337-11.495-21.924-3.07-51.819 20.189-82.539 23.233-30.684 61.16-62.03 108.283-86.738z" stroke="#000"/><path d="M419.146 126.131c36.38-17.284 72.624-25.911 101.801-25.905 29.219.006 51.161 8.659 59.258 25.701 8.097 17.042.943 39.518-17.511 62.172-18.426 22.622-48.01 45.269-84.39 62.553-36.38 17.283-72.624 25.91-101.801 25.904-29.219-.006-51.162-8.658-59.258-25.701-8.097-17.042-.943-39.517 17.51-62.172 18.427-22.622 48.011-45.269 84.391-62.552z" stroke="#000"/></svg>