<svg width="448" height="431" fill="none" xmlns="http://www.w3.org/2000/svg"><g filter="url(#a)"><path d="M20.239 420.477c-5.4-17.653-13.08-32.182-7.776-51.857 5.19-19.252 20.613-37.584 39.459-43.883m0 0c9.845-3.291 20.624-3.298 31.368 1.562 11.001 4.977 31.412 32.275 9.636 39.126-23.807 7.49-39.636-21.442-41.004-40.688zm0 0c-.027-.386-.05-.769-.065-1.147-1.384-33.204 21.403-62.643 45.851-82.334 12.638-10.178 28.194-20.218 44.536-25.024m0 0c15.111-4.444 30.894-4.413 45.661 4.124 12.971 7.497 33.129 34.28 11.959 45.694-18.839 10.158-37.817-10.568-46.134-24.659-4.676-7.921-8.484-16.372-11.486-25.159zm0 0c-9.964-29.167-11.041-62.045-5.42-91.572 8.184-42.986 34.528-112.522 88.615-114.02 24.981-.691 46.277 16.604 59.23 38.28m0 0c7.297 12.211 11.947 25.812 13.117 38.37.213 2.284-.176 28.33-11.757 28.199-11.163-.126-12.634-25.453-12.564-28.16.326-12.628 4.089-26.932 11.204-38.408zm0 0c8.591-13.856 22.067-23.592 40.279-21.285 90.247 11.432 98.636 255.201 31.636 188.597-31.636-40.896 69-80.896 80.611-80.896" stroke="#4783E4" stroke-width="12" stroke-linecap="round"/></g><defs><filter id="a" x=".699" y=".62" width="446.497" height="429.859" filterUnits="userSpaceOnUse" color-interpolation-filters="sRGB"><feFlood flood-opacity="0" result="BackgroundImageFix"/><feBlend in="SourceGraphic" in2="BackgroundImageFix" result="shape"/><feGaussianBlur stdDeviation="2" result="effect1_foregroundBlur_2_89"/></filter></defs></svg>