<svg width="95" height="146" fill="none" xmlns="http://www.w3.org/2000/svg"><path fill-rule="evenodd" clip-rule="evenodd" d="M11.499 5.23c-1.19 3.9.99 8.032 4.869 9.228 10.955 3.378 20.16 13.46 22.103 24.781-4.91-1.196-10.195-1.886-15.226-1.624-8.757.454-19.056 4.148-22.35 15.742-.79 2.775-1.155 6.248-.69 9.635.45 3.267 1.876 7.717 5.923 10.608 8.778 6.272 18.759 6.579 27.146 2.966 7.155-3.083 13.113-8.965 16.586-16.27 7.605 6.207 12.3 17.03 12.644 28.194-5.205-1.286-10.672-1.639-15.755-.488-4.363.987-8.604 3.135-11.88 6.909-3.282 3.78-5.135 8.658-5.63 14.302-.442 5.04.993 9.56 3.882 13.06 2.789 3.378 6.582 5.398 10.35 6.362 7.252 1.855 16.506.247 22.335-6.379 3.14-3.569 5.579-7.586 7.38-11.844 1.153 1.104 2.073 2.223 2.723 3.295l6.272-3.845-6.272 3.845c1.789 2.949 3.302 6.976 3.997 11.217.7 4.274.481 8.204-.59 11.184-1.38 3.836.593 8.07 4.408 9.458 3.815 1.387 8.026-.597 9.406-4.433 2.17-6.034 2.245-12.667 1.271-18.61-.979-5.976-3.108-11.821-5.949-16.506l-6.222 3.815 6.222-3.815c-2.712-4.472-6.853-8.289-11.46-11.257 1.607-18.84-6.267-39.789-23.084-49.544a40.604 40.604 0 0 0-.378-.217C54.34 23.942 38.414 5.805 20.675.335c-3.879-1.196-7.987.996-9.176 4.896zm48.747 97.939c-1.285 3.491-3.106 6.643-5.443 9.299-1.45 1.647-4.627 2.64-7.71 1.851-1.397-.357-2.246-.97-2.668-1.481-.322-.39-.667-1.016-.552-2.327.276-3.15 1.198-4.89 2.062-5.885.87-1.001 2.145-1.784 4.04-2.213 2.763-.625 6.406-.371 10.27.756zM36.57 54c-2.001 4.168-5.365 7.387-9.081 8.987-3.976 1.713-8.371 1.628-12.555-1.221-.05-.141-.12-.392-.176-.796-.159-1.154-.023-2.552.262-3.554.78-2.749 3.046-4.74 8.983-5.05 3.89-.201 8.365.473 12.567 1.634zM15 61.913l-.013-.02a.11.11 0 0 0 .012.02z" fill="#4783E4"/></svg>