<svg width="34" height="48" viewBox="0 0 34 48" fill="none" xmlns="http://www.w3.org/2000/svg">
<path fill-rule="evenodd" clip-rule="evenodd" d="M3.99961 46.9334C5.30091 46.5883 6.08058 45.2576 5.74106 43.9612C4.78206 40.2993 6.00876 35.9613 8.84711 33.4457C9.36629 35.0317 10.0926 36.6347 11.0416 38.0008C12.6934 40.3788 15.5224 42.6256 19.3491 41.5319C20.265 41.2702 21.3032 40.7683 22.1723 40.0483C23.011 39.3535 24.0112 38.1787 24.118 36.54C24.3498 32.9852 22.699 30.1314 20.225 28.4068C18.1149 26.9359 15.4273 26.2879 12.773 26.585C13.1909 23.3706 15.4105 20.1695 18.4833 18.1299C19.0285 19.8141 19.881 21.4093 21.0886 22.6354C22.125 23.6878 23.4658 24.5039 25.095 24.7664C26.7267 25.0293 28.418 24.6999 30.0879 23.8565C31.579 23.1034 32.5976 21.914 33.0767 20.494C33.5392 19.1235 33.4457 17.7075 33.0603 16.4823C32.3186 14.125 30.2567 11.8083 27.3827 11.326C25.8351 11.0662 24.2833 11.0809 22.7749 11.3166C22.8842 10.801 23.0378 10.3482 23.2256 9.97899L21.055 8.88861L23.2256 9.97899C23.7417 8.964 24.6082 7.83848 25.6774 6.90521C26.7547 5.96478 27.8955 5.34225 28.9182 5.12436C30.2347 4.84385 31.0792 3.55294 30.8045 2.24103C30.5299 0.929117 29.2399 0.0929941 27.9234 0.373499C25.8527 0.814714 23.9787 1.94823 22.4805 3.25596C20.9742 4.57086 19.7045 6.18563 18.8845 7.79823L21.0381 8.88012L18.8845 7.79823C18.1017 9.33765 17.7517 11.1639 17.7208 12.9734C12.1546 15.8018 7.64725 21.6573 7.83713 28.0739C7.83855 28.1216 7.84024 28.1697 7.84221 28.2179C1.79257 31.6555 -0.524259 39.2812 1.02866 45.2109C1.36818 46.5073 2.69832 47.2785 3.99961 46.9334ZM22.995 16.2084C24.1983 15.9612 25.3995 15.9236 26.5516 16.117C27.2662 16.2369 28.0977 16.9558 28.4129 17.9579C28.5559 18.4124 28.5318 18.7571 28.4618 18.9646C28.4085 19.1226 28.2928 19.3286 27.9051 19.5244C26.9731 19.9951 26.3243 20.0395 25.8946 19.9702C25.4626 19.9006 25.0208 19.6788 24.5708 19.2219C23.9142 18.5553 23.3517 17.4889 22.995 16.2084ZM13.3198 31.4097C14.8375 31.2459 16.3263 31.6296 17.4221 32.3936C18.5949 33.2111 19.336 34.459 19.2646 36.1289C19.2339 36.1676 19.1757 36.2311 19.072 36.317C18.7759 36.5622 18.3599 36.7676 18.0291 36.8621C17.1222 37.1213 16.1688 36.8324 15.049 35.2204C14.3151 34.1639 13.7254 32.7908 13.3198 31.4097ZM19.2947 36.085C19.2946 36.085 19.2932 36.0873 19.291 36.0921C19.2938 36.0874 19.2949 36.085 19.2947 36.085Z" fill="#4783E4"/>
</svg>
