<svg width="35" height="35" fill="none" xmlns="http://www.w3.org/2000/svg"><path d="M11.835 17.508a5.667 5.667 0 1 1 5.666 5.667 5.667 5.667 0 0 1-5.666-5.667zm-3.064 0a8.73 8.73 0 0 0 8.73 8.73 8.73 8.73 0 1 0 0-17.459 8.73 8.73 0 0 0-8.73 8.73zm15.765-9.075a2.04 2.04 0 1 0 4.082 0 2.04 2.04 0 0 0-4.082 0zM10.632 31.346c-1.658-.076-2.559-.352-3.157-.585a5.288 5.288 0 0 1-1.956-1.272 5.254 5.254 0 0 1-1.271-1.954c-.234-.598-.51-1.5-.585-3.157-.083-1.792-.1-2.33-.1-6.87s.019-5.076.1-6.87c.075-1.657.352-2.557.585-3.157a5.287 5.287 0 0 1 1.271-1.955 5.249 5.249 0 0 1 1.956-1.272c.598-.233 1.5-.51 3.157-.585 1.792-.082 2.33-.099 6.869-.099 4.54 0 5.076.018 6.87.1 1.658.075 2.557.352 3.157.584.794.308 1.36.677 1.956 1.272a5.277 5.277 0 0 1 1.271 1.955c.234.599.51 1.5.585 3.157.083 1.794.1 2.33.1 6.87 0 4.539-.017 5.077-.1 6.87-.075 1.658-.353 2.559-.585 3.157a5.272 5.272 0 0 1-1.271 1.954 5.277 5.277 0 0 1-1.956 1.272c-.599.233-1.5.51-3.157.585-1.792.082-2.33.099-6.87.099-4.539 0-5.077-.017-6.87-.1zM10.492.61c-1.81.083-3.046.37-4.127.79a8.342 8.342 0 0 0-3.011 1.96 8.319 8.319 0 0 0-1.961 3.012C.973 7.453.685 8.69.603 10.5.519 12.312.5 12.892.5 17.508c0 4.617.02 5.196.103 7.009.082 1.81.37 3.046.79 4.126a8.312 8.312 0 0 0 1.96 3.012 8.336 8.336 0 0 0 3.012 1.96c1.082.42 2.317.708 4.127.79 1.814.083 2.392.103 7.009.103 4.618 0 5.196-.019 7.009-.103 1.81-.082 3.045-.37 4.126-.79a8.36 8.36 0 0 0 3.012-1.96 8.347 8.347 0 0 0 1.96-3.012c.421-1.08.71-2.316.79-4.126.083-1.814.102-2.392.102-7.009 0-4.616-.02-5.196-.102-7.008-.082-1.81-.369-3.046-.79-4.127a8.36 8.36 0 0 0-1.96-3.011 8.337 8.337 0 0 0-3.01-1.961C27.555.98 26.32.692 24.51.61 22.698.53 22.12.508 17.502.508c-4.618 0-5.196.02-7.01.103z" fill="#4783E4"/></svg>