<svg width="155" height="154" fill="none" xmlns="http://www.w3.org/2000/svg"><path fill-rule="evenodd" clip-rule="evenodd" d="M118.15 60.284c32.322 2.696 36.23 9.166 36.23 16.719 0 7.563-3.919 14.04-36.364 16.73 21.039 24.843 19.23 32.194 13.882 37.542-5.347 5.347-12.695 7.156-37.522-13.865-2.677 32.661-9.168 36.598-16.75 36.598-7.57 0-14.054-3.927-16.738-36.465-24.853 21.05-32.205 19.241-37.554 13.892-5.358-5.357-7.164-12.725 13.994-37.674C4.566 91.09.62 84.594.62 77.004c0-7.58 3.936-14.069 36.574-16.748-21.186-24.973-19.38-32.345-14.02-37.705 5.36-5.36 12.735-7.166 37.724 14.037C63.59 4.166 70.066.248 77.627.248c7.572 0 14.055 3.928 16.739 36.472 24.964-21.174 32.333-19.368 37.692-14.01 5.351 5.351 7.159 12.706-13.908 37.574z" fill="#4783E4"/><g filter="url(#a)"><path fill-rule="evenodd" clip-rule="evenodd" d="M101.59 66.883c19.137 1.597 21.451 5.428 21.451 9.9 0 4.478-2.32 8.314-21.53 9.906 12.457 14.709 11.386 19.062 8.219 22.228-3.166 3.166-7.517 4.238-22.217-8.209-1.586 19.338-5.428 21.67-9.918 21.67-4.483 0-8.321-2.325-9.91-21.591-14.716 12.464-19.07 11.393-22.236 8.225-3.172-3.172-4.242-7.534 8.285-22.306C34.337 85.124 32 81.277 32 76.783c0-4.488 2.33-8.33 21.656-9.916C41.112 52.08 42.18 47.715 45.354 44.54c3.175-3.174 7.54-4.243 22.337 8.311 1.593-19.196 5.427-21.516 9.904-21.516 4.484 0 8.323 2.326 9.912 21.596 14.781-12.538 19.145-11.469 22.318-8.296 3.168 3.168 4.238 7.523-8.235 22.247z" fill="#fff"/></g><defs><filter id="a" x="22" y="21.336" width="111.041" height="111.041" filterUnits="userSpaceOnUse" color-interpolation-filters="sRGB"><feFlood flood-opacity="0" result="BackgroundImageFix"/><feBlend in="SourceGraphic" in2="BackgroundImageFix" result="shape"/><feGaussianBlur stdDeviation="5" result="effect1_foregroundBlur_2_97"/></filter></defs></svg>