<svg width="100" height="27" fill="none" xmlns="http://www.w3.org/2000/svg"><path d="M0 4.693h7.79c1.243 0 2.209.354 2.897 1.06.71.708 1.065 1.736 1.065 3.084 0 1.127-.255 2-.766 2.618-.488.62-1.187 1.05-2.097 1.293v.066c2.397.376 3.596 1.724 3.596 4.044 0 1.393-.367 2.52-1.099 3.381-.732.862-1.798 1.293-3.196 1.293H0V4.693zm7.99 15.812c1.11 0 1.92-.31 2.43-.928.533-.62.8-1.36.8-2.221v-.929c0-.84-.3-1.557-.9-2.154-.576-.597-1.486-.895-2.73-.895H1.166v7.127H7.99zm-.6-8.122c1.066 0 1.843-.287 2.331-.861.51-.597.766-1.304.766-2.122v-.928c0-.773-.233-1.425-.699-1.956-.466-.53-1.187-.795-2.164-.795H1.165v6.662h6.226zM32.519 21.93c-2.242 0-4.018-.751-5.327-2.254-1.287-1.503-1.931-3.69-1.931-6.563 0-2.851.633-5.028 1.898-6.53 1.265-1.525 3.007-2.288 5.227-2.288 1.043 0 1.986.2 2.83.597a6.106 6.106 0 0 1 2.197 1.69c.621.73 1.098 1.614 1.431 2.652.333 1.017.5 2.155.5 3.415v.53H26.493v.895c0 1.039.133 1.978.4 2.818.266.84.654 1.558 1.165 2.154a5.623 5.623 0 0 0 1.897 1.392c.755.31 1.61.465 2.564.465 2.685 0 4.538-1.282 5.56-3.846l.898.498c-.51 1.326-1.31 2.386-2.397 3.182-1.087.795-2.441 1.193-4.061 1.193zm-.133-16.607c-.933 0-1.765.166-2.498.497a5.02 5.02 0 0 0-1.83 1.36c-.511.596-.9 1.314-1.166 2.154-.266.84-.4 1.768-.4 2.784v.133h11.586v-.199c0-1.017-.144-1.934-.432-2.751-.267-.84-.655-1.547-1.166-2.122a4.732 4.732 0 0 0-1.797-1.359c-.688-.331-1.454-.497-2.297-.497zM62.622 21.119h9.112V4.279H70.57v15.812h-7.957V4.279h-1.165v15.812H53.49V4.279h-1.165v16.84h9.121v5.458h1.176v-5.459zM87.613 4.28h1.167v6.837h5.468c1.734 0 3.045.45 3.934 1.354.912.88 1.368 2.08 1.368 3.6s-.456 2.73-1.367 3.633c-.89.903-2.201 1.355-3.935 1.355h-6.635V4.279zm6.535 15.755c1.4 0 2.434-.33 3.1-.991.69-.66 1.034-1.487 1.034-2.477v-.991c0-.991-.344-1.806-1.033-2.445-.667-.66-1.7-.99-3.101-.99H88.78v7.894h5.368z" fill="#545F71"/><path d="M67.258 16.84h9.093V0H75.19v15.812h-7.94V0h-1.164v15.812h-7.94V0h-1.163v16.84h9.103v4.219h1.173v-4.22z" fill="#545F71"/></svg>