<svg width="32" height="21" fill="none" xmlns="http://www.w3.org/2000/svg"><path fill-rule="evenodd" clip-rule="evenodd" d="M31.118.992a1 1 0 0 1-.954 1.044c-9.714.442-19.405.442-29.1.442h-.02a1 1 0 1 1 0-2c9.71 0 19.362 0 29.03-.44a1 1 0 0 1 1.044.954zM31.556 10.643a1 1 0 0 1-.91 1.082c-9.699.834-19.373 1.615-29.1 2.205a1 1 0 1 1-.121-1.997c9.702-.588 19.357-1.367 29.049-2.2a1 1 0 0 1 1.082.91zM32 19.085a1 1 0 0 1-.986 1.014l-3.892.053c-8.541.116-17.08.232-25.618.387a1 1 0 0 1-.037-2c8.543-.155 17.087-.271 25.628-.387l3.891-.053a1 1 0 0 1 1.014.986z" fill="#545F71"/></svg>