<svg width="34" height="29" fill="none" xmlns="http://www.w3.org/2000/svg"><path d="M24.777 9.452C25.82 8.416 26.855 6 22.51 8.934a747.768 747.768 0 0 1-12.258 8.201 5.129 5.129 0 0 1-3.999.086 182.754 182.754 0 0 1-5.65-1.812s-2.078-1.296 1.48-2.676c0 0 15.038-6.129 20.254-8.288 1.998-.863 8.778-3.624 8.778-3.624s3.13-1.21 2.87 1.726c-.087 1.208-.782 5.44-1.478 10.013a9100.92 9100.92 0 0 0-2.174 13.553s-.174 1.985-1.651 2.33a7.185 7.185 0 0 1-4.345-1.553c-.347-.26-6.519-4.144-8.78-6.043a1.64 1.64 0 0 1-.723-1.405 1.627 1.627 0 0 1 .81-1.358 318.923 318.923 0 0 0 9.133-8.632z" fill="#4783E4"/></svg>